<svg width="16" height="16" viewBox="0 0 16 16" fill="none" xmlns="http://www.w3.org/2000/svg">
<path d="M0 14.5V1.5C0 0.6875 0.65625 0 1.5 0H4.5C5.3125 0 6 0.6875 6 1.5V3H3.5C3.21875 3 3 3.25 3 3.5C3 3.78125 3.21875 4 3.5 4H6V6H3.5C3.21875 6 3 6.25 3 6.5C3 6.78125 3.21875 7 3.5 7H6V9H3.5C3.21875 9 3 9.25 3 9.5C3 9.78125 3.21875 10 3.5 10H6V12.5C6 12.7812 6.21875 13 6.5 13C6.75 13 7 12.7812 7 12.5V10H9V12.5C9 12.7812 9.21875 13 9.5 13C9.75 13 10 12.7812 10 12.5V10H12V12.5C12 12.7812 12.2188 13 12.5 13C12.75 13 13 12.7812 13 12.5V10H14.5C15.3125 10 16 10.6875 16 11.5V14.5C16 15.3438 15.3125 16 14.5 16H1.5C0.71875 16 0.0625 15.4375 0 14.6562C0 14.625 0 14.5625 0 14.5Z" fill="#D4AB58"/>
</svg>
